<svg xmlns="http://www.w3.org/2000/svg" style="isolation:isolate" width="24" height="24" viewBox="0 0 24 24"><defs><clipPath id="a"><path d="M0 0h24v24H0z"/></clipPath></defs><g clip-path="url(#a)"><path d="M18.148 6.011A4.793 4.793 0 0115.956 2h-3.457l-.007 13.782a2.9 2.9 0 01-4.247 2.451 2.888 2.888 0 01-1.558-2.558 2.903 2.903 0 012.908-2.892c.298 0 .587.05.856.134v-3.51a6.583 6.583 0 00-.856-.063c-3.509 0-6.362 2.838-6.362 6.328a6.316 6.316 0 002.716 5.183A6.35 6.35 0 009.595 22c3.508 0 6.361-2.839 6.361-6.328v-6.99a8.254 8.254 0 004.811 1.54V6.785a4.834 4.834 0 01-2.619-.774z" fill="none" stroke="currentColor" stroke-width="2" stroke-linejoin="round" stroke-linecap="round" /></g></svg>