<?xml version="1.0" standalone="no"?>
<!DOCTYPE svg PUBLIC "-//W3C//DTD SVG 20010904//EN"
 "http://www.w3.org/TR/2001/REC-SVG-20010904/DTD/svg10.dtd">
<svg version="1.0" xmlns="http://www.w3.org/2000/svg"
 width="700.000000pt" height="700.000000pt" viewBox="0 0 700.000000 700.000000"
 preserveAspectRatio="xMidYMid meet">
<metadata>
Created by potrace 1.11, written by Peter Selinger 2001-2013
</metadata>
<g transform="translate(0.000000,700.000000) scale(0.100000,-0.100000)"
fill="#000000" stroke="none">
<path d="M3305 6714 c-569 -44 -1077 -209 -1527 -494 -811 -515 -1341 -1348
-1473 -2314 -22 -162 -30 -494 -16 -661 82 -939 540 -1767 1288 -2327 438
-328 946 -533 1523 -614 175 -25 613 -26 790 -1 331 46 594 119 894 248 481
207 895 524 1231 944 370 462 601 1015 681 1631 21 161 24 551 6 709 -67 568
-261 1080 -576 1525 -308 434 -704 773 -1185 1014 -352 175 -708 281 -1096
326 -96 11 -456 20 -540 14z m-845 -1657 c26 -13 58 -41 75 -66 l30 -43 5
-1336 c3 -883 8 -1336 15 -1335 6 1 413 187 905 413 492 227 1048 482 1235
567 187 85 343 158 347 161 4 4 -323 160 -725 347 -403 187 -846 392 -984 457
-139 64 -264 125 -277 135 -38 28 -74 91 -82 141 -21 137 106 267 242 248 23
-3 232 -94 475 -207 239 -111 520 -241 624 -289 105 -48 226 -105 270 -125 44
-20 298 -138 565 -262 267 -124 504 -234 528 -245 75 -35 122 -114 122 -204 0
-51 -40 -136 -76 -161 -16 -12 -515 -244 -1109 -516 -594 -272 -1336 -613
-1650 -757 -613 -283 -636 -291 -715 -258 -52 22 -101 67 -121 113 -18 38 -19
98 -19 1248 0 731 -4 1207 -9 1205 -5 -1 -59 -58 -120 -125 -128 -140 -160
-158 -261 -151 -74 5 -133 43 -170 108 -32 58 -34 147 -5 202 17 31 504 575
622 695 73 73 168 88 263 40z"/>
</g>
</svg>
