<svg xmlns="http://www.w3.org/2000/svg" width="512" height="512" style="isolation:isolate"><defs><clipPath id="a"><path d="M0 0h512v512H0z"/></clipPath></defs><g clip-path="url(#a)"><radialGradient id="b" fx="34.475%" fy="68.265%" gradientTransform="matrix(1.82648 .10959 -.23744 1.80822 -.295 -.459)"><stop offset="0%" stop-color="#d00000"/><stop offset="98.261%" stop-color="#a60000"/></radialGradient><path fill="url(#b)" d="M37.569 328.076c-39.78-120.555 25.8-250.727 146.355-290.507 120.555-39.78 250.727 25.8 290.507 146.355 39.78 120.555-25.8 250.727-146.355 290.507-120.555 39.78-250.727-25.8-290.507-146.355z"/><path fill="#FFF" fill-rule="evenodd" d="M432.232 276.347l.025-.235 27.093-19.669.001.652c0 53.879-21.465 105.673-59.528 143.823-38.15 38.063-89.944 59.528-143.823 59.528-53.879 0-105.673-21.465-143.823-59.528-38.063-38.15-59.528-89.944-59.528-143.823 0-53.879 21.465-105.673 59.528-143.823C150.327 75.209 202.121 53.744 256 53.744c53.879 0 105.673 21.465 143.823 59.528a203.948 203.948 0 0 1 56.004 106.171l-23.705 17.417c-4.548-39.568-22.336-76.679-50.809-105.078C348.116 98.499 303.014 79.815 256 79.815c-47.014 0-92.116 18.684-125.313 51.967-33.283 33.197-51.967 78.299-51.967 125.313 0 47.014 18.684 92.116 51.967 125.313 33.197 33.283 78.299 51.967 125.313 51.967 47.014 0 92.116-18.684 125.313-51.967a176.814 176.814 0 0 0 15.059-17.094l-36.09-36.09q51.617-37.943 71.95-52.877z"/><path fill="#FFF" d="M203.83 196.659q.59-7.499 6.75-13.775l44.086-44.229q3.598-3.727 8.925-3.821 5.993-.107 10.877 2.971 4.884 3.078 4.978 8.405l3.902 220.416q.094 5.327-5.177 8.584-5.272 3.258-12.264 3.381-7.325.13-12.541-2.942-5.217-3.071-5.311-8.399l-3.12-176.204-21.494 22.204q-3.271 3.389-7.266 3.46-4.995.088-8.57-4.345-3.681-10.379-3.775-15.706z"/></g></svg>