<svg xmlns="http://www.w3.org/2000/svg" style="isolation:isolate" viewBox="0 0 800 800"><defs><clipPath id="a"><path d="M0 0h800v800H0z"/></clipPath></defs><g clip-path="url(#a)"><radialGradient id="b" cx=".5" cy=".5" r=".5" fx=".102" fy=".661" gradientTransform="matrix(1185.225 -648.99 487.144 1465.228 -448.838 -44.181)" gradientUnits="userSpaceOnUse"><stop offset="12.609%" stop-color="#ff0400"/><stop offset="66.087%" stop-color="#ff9d00"/></radialGradient><path fill="url(#b)" d="M50.601 515.292C-13.03 322.454 91.869 114.233 284.708 50.601 477.546-13.03 685.767 91.869 749.399 284.708c63.631 192.838-41.268 401.059-234.107 464.691-192.838 63.631-401.059-41.268-464.691-234.107z"/><defs><filter id="c" width="400%" height="400%" x="-200%" y="-200%" color-interpolation-filters="sRGB" filterUnits="objectBoundingBox"><feGaussianBlur xmlns="http://www.w3.org/2000/svg" in="SourceGraphic" stdDeviation="5.152"/><feOffset xmlns="http://www.w3.org/2000/svg" dx="3" dy="3" result="pf_100_offsetBlur"/><feFlood xmlns="http://www.w3.org/2000/svg" flood-color="#000" flood-opacity=".35"/><feComposite xmlns="http://www.w3.org/2000/svg" in2="pf_100_offsetBlur" operator="in" result="pf_100_dropShadow"/><feBlend xmlns="http://www.w3.org/2000/svg" in="SourceGraphic" in2="pf_100_dropShadow"/></filter></defs><g filter="url(#c)"><path stroke="#FFF" stroke-linecap="round" stroke-linejoin="round" stroke-miterlimit="3" stroke-width="30" d="M269.203 579.685v.008" vector-effect="non-scaling-stroke"/></g><defs><filter id="d" width="400%" height="400%" x="-200%" y="-200%" color-interpolation-filters="sRGB" filterUnits="objectBoundingBox"><feGaussianBlur xmlns="http://www.w3.org/2000/svg" in="SourceGraphic" stdDeviation="5.152"/><feOffset xmlns="http://www.w3.org/2000/svg" dx="3" dy="3" result="pf_100_offsetBlur"/><feFlood xmlns="http://www.w3.org/2000/svg" flood-color="#000" flood-opacity=".35"/><feComposite xmlns="http://www.w3.org/2000/svg" in2="pf_100_offsetBlur" operator="in" result="pf_100_dropShadow"/><feBlend xmlns="http://www.w3.org/2000/svg" in="SourceGraphic" in2="pf_100_dropShadow"/></filter></defs><g filter="url(#d)"><path fill="#FFF" fill-rule="evenodd" d="M580.813 408.986L294.409 540.393v-296.57a25.15 25.15 0 00-7.392-17.808 25.15 25.15 0 00-17.808-7.392 25.159 25.159 0 00-17.825 7.392c-.033.033-.066.065-.097.1-.103.111-.209.218-.315.326-.182.187-.359.377-.536.568l-.06.064-66.597 73.082a25.21 25.21 0 00-6.536 18.145 25.184 25.184 0 0026.343 23.991 25.184 25.184 0 0017.456-8.199l22.966-25.203v270.136c-.009.336-.011.671.006 1.006-.007.401.007.801.045 1.2.022.575.076 1.148.17 1.717.012.241.046.48.097.718.08.583.193 1.162.347 1.734.032.227.087.451.159.671.134.568.302 1.129.51 1.68.058.235.139.464.237.688.206.596.449 1.181.714 1.758.031.067.062.134.095.199.02.048.041.094.066.138.264.561.55 1.108.87 1.632.13.265.279.517.443.758.267.456.557.896.875 1.313.16.258.338.5.53.731.307.424.637.829.992 1.211.216.277.451.537.697.786.223.25.457.488.703.715.311.32.638.624.981.91.391.36.801.699 1.234 1.01.216.192.447.364.688.523.431.326.881.629 1.351.901.224.163.46.306.707.435.466.285.948.545 1.449.773.236.139.483.257.739.36a19.584 19.584 0 002.074.849c.584.21 1.175.395 1.774.538.275.095.555.166.839.22.52.136 1.045.243 1.574.314.282.067.567.11.854.136.535.086 1.074.141 1.614.16.323.042.648.058.973.059.372.021.743.025 1.115.008.412.007.824-.009 1.234-.046a13.518 13.518 0 001.668-.166c.26-.014.517-.051.772-.105a13.564 13.564 0 001.675-.335c.246-.036.488-.096.727-.172a13.538 13.538 0 001.631-.496c.249-.063.492-.149.73-.251.59-.205 1.17-.446 1.742-.709l368.624-169.132a25.154 25.154 0 0015.781-13.575 24.965 24.965 0 002.341-10.348c.008-.115.009-.23.014-.345-.006-.151-.008-.301-.016-.452a24.966 24.966 0 00-2.283-10.273 25.18 25.18 0 00-15.738-13.652L378.759 259.546c-6.048-2.822-12.987-3.108-19.27-.823a25.262 25.262 0 00-14.196 13.054 25.216 25.216 0 00-.823 19.27 25.295 25.295 0 0013.053 14.213l223.29 103.726z"/></g></g></svg>