<svg xmlns="http://www.w3.org/2000/svg" width="460" height="190" style="isolation:isolate"><defs><clipPath id="a"><path d="M0 0h460v190H0z"/></clipPath></defs><g clip-path="url(#a)"><path fill="#FFF" fill-rule="evenodd" d="M198 116.013V58.571q0-1.605 1.834-2.752 1.835-1.146 4.128-1.146t4.185 1.146q1.892 1.147 1.892 2.752v20.982h13.988q1.49 0 2.407 1.318.918 1.319.918 3.153 0 1.835-.918 3.153-.917 1.319-2.407 1.319h-13.988v27.517q0 4.128 1.777 5.847 1.777 1.72 6.249 1.72h4.013q2.407 0 3.783 1.491 1.376 1.49 1.376 3.669 0 2.178-1.376 3.669-1.376 1.49-3.783 1.49h-4.013q-20.065 0-20.065-17.886zm37.378-3.784V83.566q0-1.606 1.834-2.809 1.835-1.204 4.242-1.204 2.408 0 4.185 1.204 1.777 1.203 1.777 2.809v28.663q0 4.587 3.497 8.256 3.497 3.669 8.198 3.669 4.816 0 8.255-3.612 3.44-3.612 3.44-8.313V83.451q0-1.605 1.777-2.752 1.777-1.146 4.3-1.146 2.522 0 4.185 1.146 1.662 1.147 1.662 2.752v28.778q0 9.058-6.994 15.823-6.994 6.765-16.625 6.765t-16.682-6.765q-7.051-6.765-7.051-15.823zm59.506 17.657V83.451q0-1.72 1.662-2.809 1.663-1.089 4.3-1.089 2.293 0 3.841 1.089t1.548 2.809v4.128q1.834-3.669 5.904-6.192 4.071-2.522 9.459-2.522 8.141 0 14.046 6.65 5.904 6.65 5.904 15.937v28.434q0 1.835-1.777 2.924t-4.299 1.089q-2.293 0-4.128-1.089-1.834-1.089-1.834-2.924v-28.434q0-4.586-3.44-8.255-3.44-3.669-8.141-3.669-4.357 0-7.682 3.267-3.325 3.268-3.325 8.657v28.434q0 1.491-1.834 2.752-1.835 1.261-4.242 1.261-2.523 0-4.243-1.261-1.719-1.261-1.719-2.752zM351.638 112v-10.892q0-9.058 6.994-15.651 6.994-6.592 16.854-6.592 9.402 0 16.109 6.019 6.708 6.02 6.708 15.192 0 3.44-.803 5.561t-2.522 2.981q-1.72.86-3.211 1.089-1.49.229-3.898.229h-24.192v2.637q0 5.733 4.127 9.115 4.128 3.383 10.778 3.383 4.701 0 8.886-2.179 4.185-2.178 5.102-2.178 1.949 0 3.325 1.834 1.376 1.835 1.376 3.555 0 2.866-5.504 5.79-5.503 2.924-13.529 2.924-11.695 0-19.147-6.307-7.453-6.306-7.453-16.51zm12.039-13.185v3.669h19.033q2.522 0 3.382-.688.86-.688.86-2.752 0-4.586-3.325-7.796-3.325-3.211-8.255-3.211-4.816 0-8.256 3.039-3.439 3.038-3.439 7.739zm44.371 31.071V83.451q0-1.72 1.663-2.809 1.662-1.089 4.185-1.089 2.293 0 3.898 1.089t1.605 2.809v5.045q1.949-4.013 5.905-6.822 3.956-2.809 8.656-2.809h3.669q1.835 0 3.211 1.548 1.376 1.547 1.376 3.726 0 2.178-1.376 3.784-1.376 1.605-3.211 1.605h-3.669q-5.503 0-9.688 4.701-4.185 4.7-4.185 12.153v23.504q0 1.491-1.834 2.752-1.835 1.261-4.357 1.261-2.523 0-4.185-1.261-1.663-1.261-1.663-2.752z"/><radialGradient id="b" fx="34.475%" fy="68.265%" gradientTransform="matrix(1.82648 .10959 -.23744 1.80822 -.295 -.459)"><stop offset="0%" stop-color="#d00000"/><stop offset="98.261%" stop-color="#a60000"/></radialGradient><path fill="url(#b)" d="M21.726 118.574C8.574 78.717 30.255 35.681 70.112 22.53c39.856-13.152 82.892 8.529 96.043 48.386 13.152 39.856-8.529 82.892-48.385 96.043-39.857 13.152-82.893-8.529-96.044-48.385z"/><path fill="#FFF" fill-rule="evenodd" d="M152.204 101.471l.009-.077 8.957-6.503v.215c0 17.813-7.097 34.937-19.68 47.549-12.613 12.584-29.737 19.681-47.549 19.681-17.813 0-34.937-7.097-47.549-19.681-12.584-12.612-19.681-29.736-19.681-47.549 0-17.812 7.097-34.936 19.681-47.549 12.612-12.583 29.736-19.68 47.549-19.68 17.812 0 34.936 7.097 47.549 19.68a67.435 67.435 0 0 1 18.515 35.102l-7.837 5.758a58.505 58.505 0 0 0-16.798-34.74 58.511 58.511 0 0 0-41.429-17.181 58.512 58.512 0 0 0-41.43 17.181A58.511 58.511 0 0 0 35.33 95.106a58.512 58.512 0 0 0 17.181 41.43 58.512 58.512 0 0 0 41.43 17.181 58.511 58.511 0 0 0 41.429-17.181 58.523 58.523 0 0 0 4.979-5.651l-11.932-11.932q17.065-12.544 23.787-17.482z"/><path fill="#FFF" d="M76.693 75.126q.195-2.479 2.231-4.554l14.575-14.623q1.19-1.232 2.951-1.263 1.981-.035 3.596.982 1.615 1.018 1.646 2.779l1.29 72.871q.031 1.761-1.712 2.838-1.742 1.077-4.054 1.118-2.422.043-4.146-.972-1.725-1.016-1.756-2.777L90.282 73.27l-7.106 7.341q-1.081 1.12-2.402 1.144-1.651.029-2.833-1.437-1.217-3.431-1.248-5.192z"/></g></svg>