<svg xmlns="http://www.w3.org/2000/svg" style="isolation:isolate" viewBox="0 0 2200 800"><defs><clipPath id="a"><path d="M0 0h2200v800H0z"/></clipPath></defs><g clip-path="url(#a)"><radialGradient id="b" cx=".5" cy=".5" r=".5" fx=".102" fy=".661" gradientTransform="matrix(1185.225 -648.99 487.144 1465.228 -448.838 -44.181)" gradientUnits="userSpaceOnUse"><stop offset="12.609%" stop-color="#ff0400"/><stop offset="66.087%" stop-color="#ff9d00"/></radialGradient><path fill="url(#b)" d="M50.601 515.292C-13.03 322.454 91.869 114.233 284.708 50.601 477.546-13.03 685.767 91.869 749.399 284.708c63.631 192.838-41.268 401.059-234.107 464.691-192.838 63.631-401.059-41.268-464.691-234.107z"/><defs><filter id="c" width="400%" height="400%" x="-200%" y="-200%" color-interpolation-filters="sRGB" filterUnits="objectBoundingBox"><feGaussianBlur xmlns="http://www.w3.org/2000/svg" in="SourceGraphic" stdDeviation="5.152"/><feOffset xmlns="http://www.w3.org/2000/svg" dx="3" dy="3" result="pf_100_offsetBlur"/><feFlood xmlns="http://www.w3.org/2000/svg" flood-color="#000" flood-opacity=".35"/><feComposite xmlns="http://www.w3.org/2000/svg" in2="pf_100_offsetBlur" operator="in" result="pf_100_dropShadow"/><feBlend xmlns="http://www.w3.org/2000/svg" in="SourceGraphic" in2="pf_100_dropShadow"/></filter></defs><g filter="url(#c)"><path stroke="#FFF" stroke-linecap="round" stroke-linejoin="round" stroke-miterlimit="3" stroke-width="30" d="M269.203 579.685v.008" vector-effect="non-scaling-stroke"/></g><defs><filter id="d" width="400%" height="400%" x="-200%" y="-200%" color-interpolation-filters="sRGB" filterUnits="objectBoundingBox"><feGaussianBlur xmlns="http://www.w3.org/2000/svg" in="SourceGraphic" stdDeviation="5.152"/><feOffset xmlns="http://www.w3.org/2000/svg" dx="3" dy="3" result="pf_100_offsetBlur"/><feFlood xmlns="http://www.w3.org/2000/svg" flood-color="#000" flood-opacity=".35"/><feComposite xmlns="http://www.w3.org/2000/svg" in2="pf_100_offsetBlur" operator="in" result="pf_100_dropShadow"/><feBlend xmlns="http://www.w3.org/2000/svg" in="SourceGraphic" in2="pf_100_dropShadow"/></filter></defs><g filter="url(#d)"><path fill="#FFF" fill-rule="evenodd" d="M580.813 408.986L294.409 540.393v-296.57a25.15 25.15 0 00-7.392-17.808 25.15 25.15 0 00-17.808-7.392 25.159 25.159 0 00-17.825 7.392c-.033.033-.066.065-.097.1-.103.111-.209.218-.315.326-.182.187-.359.377-.536.568l-.06.064-66.597 73.082a25.21 25.21 0 00-6.536 18.145 25.184 25.184 0 0026.343 23.991 25.184 25.184 0 0017.456-8.199l22.966-25.203v270.136c-.009.336-.011.671.006 1.006-.007.401.007.801.045 1.2.022.575.076 1.148.17 1.717.012.241.046.48.097.718.08.583.193 1.162.347 1.734.032.227.087.451.159.671.134.568.302 1.129.51 1.68.058.235.139.464.237.688.206.596.449 1.181.714 1.758.031.067.062.134.095.199.02.048.041.094.066.138.264.561.55 1.108.87 1.632.13.265.279.517.443.758.267.456.557.896.875 1.313.16.258.338.5.53.731.307.424.637.829.992 1.211.216.277.451.537.697.786.223.25.457.488.703.715.311.32.638.624.981.91.391.36.801.699 1.234 1.01.216.192.447.364.688.523.431.326.881.629 1.351.901.224.163.46.306.707.435.466.285.948.545 1.449.773.236.139.483.257.739.36a19.584 19.584 0 002.074.849c.584.21 1.175.395 1.774.538.275.095.555.166.839.22.52.136 1.045.243 1.574.314.282.067.567.11.854.136.535.086 1.074.141 1.614.16.323.042.648.058.973.059.372.021.743.025 1.115.008.412.007.824-.009 1.234-.046a13.518 13.518 0 001.668-.166c.26-.014.517-.051.772-.105a13.564 13.564 0 001.675-.335c.246-.036.488-.096.727-.172a13.538 13.538 0 001.631-.496c.249-.063.492-.149.73-.251.59-.205 1.17-.446 1.742-.709l368.624-169.132a25.154 25.154 0 0015.781-13.575 24.965 24.965 0 002.341-10.348c.008-.115.009-.23.014-.345-.006-.151-.008-.301-.016-.452a24.966 24.966 0 00-2.283-10.273 25.18 25.18 0 00-15.738-13.652L378.759 259.546c-6.048-2.822-12.987-3.108-19.27-.823a25.262 25.262 0 00-14.196 13.054 25.216 25.216 0 00-.823 19.27 25.295 25.295 0 0013.053 14.213l223.29 103.726z"/></g><path fill="#444" fill-rule="evenodd" d="M901.824 514.516V238.098q0-7.724 8.827-13.241 8.828-5.518 19.863-5.518 11.034 0 20.138 5.518 9.103 5.517 9.103 13.241v100.967h67.312q7.172 0 11.586 6.345 4.414 6.345 4.414 15.173 0 8.827-4.414 15.172-4.414 6.345-11.586 6.345h-67.312v132.416q0 19.862 8.552 28.138 8.552 8.276 30.07 8.276h19.31q11.587 0 18.207 7.173 6.621 7.172 6.621 17.655t-6.621 17.656q-6.62 7.172-18.207 7.172h-19.31q-96.553 0-96.553-86.07zm179.864-18.207V358.376q0-7.725 8.828-13.518 8.828-5.793 20.414-5.793 11.586 0 20.138 5.793 8.552 5.793 8.552 13.518v137.933q0 22.069 16.828 39.724 16.828 17.656 39.449 17.656 23.172 0 39.724-17.38 16.552-17.379 16.552-40V357.824q0-7.724 8.552-13.242 8.552-5.517 20.69-5.517 12.138 0 20.138 5.517 8.001 5.518 8.001 13.242v138.485q0 43.587-33.656 76.139Q1242.242 605 1195.897 605q-46.346 0-80.277-32.552-33.932-32.552-33.932-76.139zm286.349 84.966V357.824q0-8.276 8-13.517 8-5.242 20.69-5.242 11.035 0 18.483 5.242 7.449 5.241 7.449 13.517v19.862q8.827-17.655 28.414-29.793 19.586-12.138 45.518-12.138 39.173 0 67.587 32 28.414 32.001 28.414 76.691v136.829q0 8.828-8.552 14.07-8.552 5.241-20.69 5.241-11.034 0-19.862-5.241-8.828-5.242-8.828-14.07V444.446q0-22.069-16.552-39.725-16.552-17.655-39.173-17.655-20.966 0-36.966 15.724-16 15.725-16 41.656v136.829q0 7.173-8.828 13.242-8.827 6.069-20.414 6.069-12.138 0-20.414-6.069-8.276-6.069-8.276-13.242zm273.107-86.07v-52.414q0-43.587 33.656-75.312 33.656-31.724 81.105-31.724 45.242 0 77.518 28.966t32.276 73.104q0 16.552-3.862 26.759t-12.138 14.345q-8.276 4.138-15.448 5.242-7.173 1.103-18.759 1.103h-116.416v12.69q0 27.587 19.863 43.863 19.862 16.276 51.863 16.276 22.621 0 42.759-10.483t24.552-10.483q9.379 0 16 8.828 6.621 8.827 6.621 17.103 0 13.794-26.483 27.863Q1807.768 605 1769.146 605q-56.276 0-92.139-30.345-35.863-30.346-35.863-79.45zm57.932-63.449v17.656h91.588q12.138 0 16.276-3.311 4.138-3.31 4.138-13.241 0-22.07-16-37.518-16.001-15.449-39.725-15.449-23.173 0-39.725 14.621-16.552 14.621-16.552 37.242zm213.521 149.519V357.824q0-8.276 8-13.517 8-5.242 20.138-5.242 11.035 0 18.759 5.242 7.724 5.241 7.724 13.517V382.1q9.38-19.31 28.414-32.828 19.035-13.517 41.656-13.517h17.656q8.827 0 15.448 7.448t6.621 17.931q0 10.483-6.621 18.208-6.621 7.724-15.448 7.724h-17.656q-26.483 0-46.621 22.621t-20.138 58.483v113.105q0 7.173-8.828 13.242-8.828 6.069-20.966 6.069-12.138 0-20.138-6.069-8-6.069-8-13.242z"/></g></svg>