<svg xmlns="http://www.w3.org/2000/svg" version="1" viewBox="0 0 700 700"><path d="M320 15.1c-3 .3-7.7.9-10.5 1.2-20 2.4-47.1 8.6-67.5 15.5-74.7 25.3-139 77-179.5 144.4C50.6 196 40 218.3 32.9 238.5c-4.8 13.9-11.2 36.8-12.5 45-.3 2.1-.8 4.7-1 5.9-3.8 19.4-4.9 33.9-4.9 62.1.1 12.1.4 24.5.8 27.5.3 3 .9 8.2 1.2 11.5.5 5.3 1.7 12.8 3.2 20.5.3 1.4.6 3.4.8 4.5 3.4 21.9 14.1 54 26.6 80 19.1 39.9 49.1 79.4 81.8 107.5 3.5 3 6.9 6 7.5 6.5 2.8 2.6 15 11.7 23.6 17.7 37.3 25.8 86.6 46.2 129.2 53.3 1.8.3 5.8 1 8.8 1.5 3 .5 8.2 1.2 11.4 1.6 3.3.3 6.9.8 8 1.1 5.2 1.2 53.8 1 66.1-.3 54-5.7 103.2-22.9 149-52.2 6.7-4.3 28.5-20 29.5-21.3.3-.3 3.4-3 7-6 9.2-7.6 29.2-27.8 38-38.4 36.1-43.2 61.5-95.3 72-148 1.8-9.2 2-10 2.6-14.5.3-2.5.8-4.7.9-5 .2-.3.6-3.7 1-7.5.4-3.9.9-7.8 1.1-8.8.2-1 .6-8.6 1-16.8.5-11.3.3-14.9-.6-14.9-1 0-52.1 36.6-62.5 44.7-4 3.1-4 3.1-12 8.9-6.9 5-55.6 40.8-60.5 44.4-1.4 1.1-8.1 6-14.9 11.1l-12.4 9.1 29.8 29.8 29.8 29.8-4.4 5.4c-4.1 5-15.7 17.4-24.1 25.8-6.5 6.6-19.1 17.7-24.8 21.9-3 2.2-5.9 4.4-6.5 4.8-9.7 8.2-43.9 27.1-62 34.3-10.6 4.3-29.5 11-29.5 10.5 0-.2-1.9.3-4.2 1.1-4.9 1.7-18.4 4.7-30.8 6.8-15.8 2.7-45.2 3.6-71.5 2.2-33-1.8-70.2-12.4-105-29.8-18.1-9.1-38.2-21.6-52-32.5-12.6-9.9-40-37.7-49.1-49.8-14.3-18.9-31.1-47.9-38.4-66.5-1.2-3-2.8-6.9-3.5-8.5-4-9-9.2-26.5-13-43.5-2.1-9.3-2.7-12.7-4.1-23-2.1-15.4-2-67.3.1-78 .2-1.4.7-4.1 1-6 .3-1.9 1-5.8 1.5-8.5.6-2.8 1.2-6 1.5-7.3.2-1.3.7-3.3 1-4.5.3-1.2 1-3.8 1.5-5.7 5.5-20.6 12.7-39.6 22.4-59 7.3-14.6 19.4-34.7 24.8-41.5.5-.6 3.5-4.4 6.8-8.7 12.5-16.2 36.1-39.5 52.5-51.9 8.7-6.6 21.3-14.9 22.5-14.9.5 0 1-.5 1-1 0-.6.5-1 1-1 .6 0 2.9-1.2 5.2-2.6C207.4 94.1 229.7 83 237 80c3-1.2 6.9-2.8 8.5-3.5 12-5 39.8-13 52.5-15.1 5.5-.9 17.6-2.4 23.8-2.9 14.2-1.3 62.7-.5 68.2 1 .8.2 3.5.7 6 1 25 3.5 57.5 14.2 84.5 27.7 58.1 29.2 101.3 72.1 131 130.3 14.3 28 22.4 53.2 28.6 89.2.7 4 1.7 7.3 2.3 7.3 1.3 0 30.5-21.6 34.6-25.5 3.4-3.2 3.4-2.8-1.7-22.5-17.1-66.5-55.1-128.1-105.3-171-3.6-3-7-6-7.6-6.5-.6-.6-2.6-2.1-4.4-3.5-1.8-1.4-4.1-3.2-5.1-4.1-1-.9-6.5-4.7-12.1-8.5-5.7-3.8-10.4-7.2-10.6-7.7-.2-.4-.8-.7-1.3-.7s-4.5-2.2-8.8-4.9c-33.9-21-90.4-40-129.5-43.7-3.4-.3-7-.8-8.1-1.1-2.8-.9-55.8-1-62.5-.2z"/><path d="M354.9 150.1c-3.3 1.5-14.1 11.7-43.4 41.2-21.5 21.6-40.2 40.8-41.7 42.7-3.6 4.9-5.5 11.5-5.2 18 .3 5.4 3.6 19.6 5.4 23 3.2 5.9 13 9.5 19 7 1.6-.7 12-10.3 23-21.3l20-20.1.1 10.9c0 6.1.2 19.1.4 29 .1 9.9.6 35.5.9 57 .4 21.4.9 48.7 1.1 60.5.2 11.8.7 36.3 1 54.5 1.1 63.1 1.7 77.5 3.7 85.2 1.2 4.8 1.5 5.1 8.2 8.7 12.5 6.6 30.4 5.3 41.5-3.1 5.6-4.3 5.7-5.4 5.5-37.5-.3-35.5-1.8-130-2.9-180.3-.2-12.7-.7-37.2-1-54.5-1.7-88.2-2.4-107.9-4.2-111.4-4.8-9.2-20.9-14.1-31.4-9.5z"/></svg>